<svg width="24" height="24" viewBox="0 0 24 24" fill="none" xmlns="http://www.w3.org/2000/svg">
<path d="M21.8413 6.01857C21.8413 5.24546 21.1886 4.6152 20.3847 4.6152H3.61441C2.80769 4.6152 2.15503 5.24546 2.15503 6.01857V17.9765C2.15503 18.7497 2.81049 19.3799 3.61441 19.3799H20.3847C21.1886 19.3799 21.8413 18.7497 21.8413 17.9765V6.01857ZM3.61441 5.79728H20.3875C20.5136 5.79728 20.6144 5.89532 20.6144 6.01576V7.74686H3.38752V6.01576C3.38752 5.89532 3.48836 5.79728 3.61441 5.79728ZM20.3847 18.195V18.1922H3.61161C3.48836 18.1922 3.38472 18.0942 3.38472 17.9737V8.93173H20.6116V17.9765C20.6116 18.097 20.5108 18.195 20.3847 18.195ZM6.31189 7.23985C5.99537 7.23985 5.74326 6.99336 5.74326 6.69083C5.74326 6.38551 5.99817 6.14181 6.31189 6.14181C6.62842 6.14181 6.88052 6.38831 6.88052 6.69083C6.88052 6.99336 6.62842 7.23985 6.31189 7.23985ZM7.45195 6.69083C7.45195 6.99336 7.70405 7.23985 8.02058 7.23985C8.3371 7.23985 8.592 6.99336 8.5892 6.69083C8.5892 6.38831 8.3371 6.14181 8.02058 6.14181C7.70685 6.14181 7.45195 6.38551 7.45195 6.69083ZM4.60041 7.23985C4.28388 7.23985 4.03178 6.99336 4.03178 6.69083C4.03178 6.38551 4.28388 6.14181 4.60041 6.14181C4.91693 6.14181 5.16903 6.38831 5.16903 6.69083C5.17184 6.99336 4.91693 7.23985 4.60041 7.23985ZM8.99817 12.0102C9.23346 11.8029 9.25027 11.4555 9.03738 11.2286C8.8245 11.0018 8.46035 10.985 8.22786 11.1922L5.88892 13.2371C5.77128 13.3407 5.70125 13.4864 5.70125 13.6432C5.70125 13.7973 5.76847 13.9457 5.88612 14.0494L8.22506 16.1306C8.3343 16.2315 8.47716 16.2791 8.61441 16.2791C8.76847 16.2791 8.92254 16.2202 9.03458 16.1026C9.25027 15.8785 9.23626 15.5284 9.00377 15.3211L7.12422 13.6488L8.99817 12.0102ZM15.6816 11.1894L18.0206 13.2343C18.1382 13.3379 18.2083 13.4864 18.2083 13.6404C18.2083 13.7973 18.141 13.9429 18.0234 14.0494L15.6844 16.1306C15.5724 16.2287 15.4323 16.2763 15.2951 16.2763C15.141 16.2763 14.987 16.2174 14.8749 16.0998C14.6592 15.8757 14.6732 15.5256 14.9057 15.3183L16.7853 13.646L14.9113 12.0074C14.676 11.8029 14.6592 11.4527 14.8721 11.2258C15.0822 11.0018 15.4463 10.985 15.6816 11.1894ZM13.4267 11.8505C13.5584 11.5704 13.4267 11.2455 13.1382 11.1194C12.8469 10.9934 12.508 11.1194 12.3791 11.4023L10.4828 15.4808C10.3511 15.7581 10.4828 16.083 10.7713 16.209C10.8469 16.2399 10.9281 16.2567 11.0066 16.2567C11.2251 16.2567 11.4351 16.1334 11.5304 15.9289L13.4267 11.8505Z" fill="black"/>
</svg>
