<svg width="24" height="24" viewBox="0 0 24 24" fill="none" xmlns="http://www.w3.org/2000/svg">
<path d="M2.19525 5.6929C2.19806 6.02344 2.46976 6.28674 2.79749 6.28394H3.84511C3.84599 6.29095 3.84659 6.29769 3.84717 6.30423C3.84846 6.31862 3.84966 6.33209 3.85351 6.34556C4.03279 7.11307 4.50897 7.77413 5.18124 8.1859C5.85631 8.60606 6.67144 8.74332 7.44734 8.56685C8.23166 8.39598 8.89832 7.93379 9.32689 7.26713C9.52017 6.96741 9.65462 6.63688 9.72465 6.28674H21.226C21.5594 6.28674 21.8283 6.02063 21.8283 5.6957C21.8283 5.37078 21.5566 5.10467 21.226 5.10467H9.72185C9.72073 5.09681 9.7205 5.08849 9.72028 5.08009C9.71994 5.06754 9.7196 5.05479 9.71625 5.04304C9.53978 4.27554 9.06919 3.62008 8.38852 3.20271C7.71345 2.78255 6.89833 2.64529 6.12242 2.82176C5.34931 2.98983 4.67144 3.45761 4.24287 4.12148C4.04679 4.4296 3.91794 4.76013 3.84791 5.10467H2.79749C2.46416 5.10467 2.19525 5.36797 2.19525 5.6929ZM5.02718 6.08506C4.92074 5.62848 5.00477 5.14669 5.25967 4.75173C5.51738 4.35117 5.92354 4.07106 6.38852 3.97022C6.85351 3.86658 7.3409 3.94781 7.74706 4.19991C8.15042 4.44641 8.43614 4.84417 8.54258 5.30355C8.64902 5.76573 8.56499 6.23912 8.31009 6.63688C8.04958 7.03744 7.65182 7.31475 7.18124 7.41839C6.71625 7.52483 6.23166 7.4436 5.8227 7.1887C5.41654 6.9366 5.13362 6.54444 5.02718 6.08506ZM17.1784 13.7741C16.184 13.7741 15.3745 12.9786 15.3745 12.0066C15.3745 11.0318 16.184 10.2391 17.1784 10.2391C18.1728 10.2391 18.9823 11.0318 18.9823 12.0066C18.9823 12.9814 18.1728 13.7741 17.1784 13.7741ZM21.8059 12.0066C21.8059 11.6789 21.5369 11.4156 21.2036 11.4156V11.4128H20.1196C19.8423 10.071 18.6266 9.05704 17.1756 9.05704C15.7246 9.05704 14.5118 10.071 14.2316 11.4128H2.77228C2.43895 11.4128 2.17004 11.6789 2.17004 12.0038C2.17285 12.3343 2.44455 12.5977 2.77228 12.5948H14.2344C14.5146 13.9366 15.7274 14.9506 17.1784 14.9506C18.6294 14.9506 19.8451 13.9366 20.1224 12.5948H21.2036C21.5369 12.5948 21.8059 12.3315 21.8059 12.0066ZM9.47535 20.0682C8.48096 20.0682 7.67143 19.2755 7.67143 18.3007C7.67143 17.3259 8.48096 16.5332 9.47535 16.5332C10.4697 16.5332 11.2793 17.3259 11.2793 18.3007C11.2793 19.2755 10.4697 20.0682 9.47535 20.0682ZM21.8031 18.3035C21.8031 17.9758 21.5341 17.7125 21.2008 17.7125L12.4193 17.7153C12.1392 16.3736 10.9263 15.3595 9.47535 15.3595C8.02437 15.3595 6.81149 16.3736 6.53138 17.7153H2.77228C2.43895 17.7153 2.17004 17.9786 2.17004 18.3035C2.17285 18.6341 2.44455 18.8974 2.77228 18.8946H6.53138C6.81149 20.2363 8.02437 21.2503 9.47535 21.2503C10.9263 21.2503 12.1392 20.2363 12.4193 18.8946H21.2008C21.5341 18.8946 21.8031 18.6285 21.8031 18.3035Z" fill="black"/>
</svg>
