<svg width="46" height="46" viewBox="0 0 46 46" fill="none" xmlns="http://www.w3.org/2000/svg">
<path d="M9.79492 3.83243V42.1658H36.2317V3.83243H9.79492ZM22.3143 28.6791H13.9621V20.8725H22.3143V28.6791ZM20.2307 22.9991H16.0546V26.5525H20.2307V22.9991ZM31.7083 24.4168C31.7083 25.0076 31.2453 25.4801 30.6665 25.4801H25.1014C24.5226 25.4801 24.0596 25.0076 24.0596 24.4168C24.0596 23.8261 24.5226 23.3535 25.1014 23.3535H30.6665C31.2364 23.3535 31.7083 23.8352 31.7083 24.4168ZM22.3143 37.9126H13.9621V30.1059H22.3143V37.9126ZM16.0546 32.2325V35.786H20.2307V32.2325H16.0546ZM30.6665 35.4224C31.2453 35.4224 31.7083 34.9499 31.7083 34.3591C31.7083 33.7684 31.2364 33.2958 30.6665 33.2958H25.1014C24.5226 33.2958 24.0596 33.7684 24.0596 34.3591C24.0596 34.9499 24.5226 35.4224 25.1014 35.4224H30.6665ZM12.5731 17.3191V10.5758H33.4447V17.3191H12.5731ZM33.4447 6.6679V8.44006H12.5731V6.6679H33.4447ZM33.4447 39.3303H12.5731V19.4457H33.4447V39.3303Z" fill="#0B2739"/>
</svg>
