<svg width="46" height="46" viewBox="0 0 46 46" fill="none" xmlns="http://www.w3.org/2000/svg">
<path d="M38.988 6.51254C39.1491 6.66823 39.3101 6.8293 39.4658 6.99036C42.0321 9.65329 43.3206 13.9322 39.2457 17.9749L17.6953 39.3965C17.69 39.4018 17.6832 39.4072 17.6765 39.4126C17.6698 39.4179 17.6631 39.4233 17.6577 39.4287C17.6551 39.4314 17.6524 39.4354 17.6497 39.4394C17.647 39.4434 17.6443 39.4475 17.6416 39.4502C17.6083 39.4835 17.5674 39.5066 17.5258 39.53C17.507 39.5406 17.4882 39.5512 17.4698 39.5629C17.4544 39.5691 17.4407 39.5788 17.4278 39.588C17.4183 39.5948 17.4092 39.6013 17.4 39.6059C17.2229 39.7186 17.0242 39.783 16.8148 39.7884C16.8041 39.7884 16.7947 39.7857 16.7853 39.783C16.7759 39.7803 16.7665 39.7777 16.7558 39.7777L5.50814 41.8446C5.14306 41.9091 4.76188 41.7963 4.48807 41.5386C4.21426 41.2809 4.08541 40.9051 4.14446 40.5347L5.94838 28.8414C5.95482 28.8092 5.96706 28.777 5.97931 28.7448C5.98747 28.7233 5.99563 28.7018 6.00207 28.6803C6.01281 28.6374 6.02355 28.5944 6.03965 28.5515C6.09334 28.4226 6.17387 28.3045 6.27588 28.2079L27.9497 6.7595C32.0784 2.67384 36.3573 3.95699 38.988 6.51254ZM36.309 17.6152L37.5868 16.3428C41.1302 12.837 38.9021 9.74993 37.7854 8.5849C37.6566 8.4507 37.5009 8.29504 37.3614 8.15548C36.2124 7.04413 33.1736 4.84821 29.6033 8.38625L28.2933 9.6855L36.309 17.6152ZM8.89049 38.8757L7.03825 37.0396L6.68928 39.2784L8.89049 38.8757ZM11.9775 32.2184L29.8718 14.5121L26.6451 11.3176L8.74553 29.0239L11.9775 32.2184ZM7.47312 34.2102L11.6715 38.3657C11.6715 38.3657 14.3881 37.8664 14.3828 37.8664L7.89726 31.4506L7.47312 34.2102ZM16.8095 37.002C16.8095 37.002 34.6608 19.2527 34.6554 19.2527L31.5146 16.1442L13.6204 33.8505L16.8095 37.002Z" fill="#0B2739"/>
</svg>
