<svg width="10" height="8" viewBox="0 0 10 8" fill="none" xmlns="http://www.w3.org/2000/svg">
<path d="M0.499205 1.12835C0.269514 1.13115 0.0818384 0.947673 0.0776367 0.717981C0.0776367 0.492491 0.266712 0.307617 0.499205 0.307617H9.49781C9.7303 0.307617 9.91937 0.491091 9.91937 0.717981C9.91517 0.947673 9.7275 1.13115 9.49781 1.12835H0.499205ZM9.49921 3.58913C9.7317 3.58913 9.92077 3.7726 9.92077 3.99949C9.91797 4.22919 9.7289 4.41266 9.49921 4.40986H0.499205C0.269514 4.41266 0.0804378 4.22919 0.0776367 3.99949C0.0776367 3.7726 0.266712 3.58913 0.499205 3.58913H9.49921ZM9.92077 7.28101C9.92077 7.05412 9.7317 6.87064 9.49921 6.87064H0.499205C0.266712 6.87064 0.0776367 7.05412 0.0776367 7.28101C0.0804378 7.5107 0.269514 7.69417 0.499205 7.69137H9.49921C9.7289 7.69417 9.91797 7.5107 9.92077 7.28101Z" fill="white"/>
</svg>
