<svg width="24" height="24" viewBox="0 0 24 24" fill="none" xmlns="http://www.w3.org/2000/svg">
<path d="M11.9982 15.8497C9.51359 15.8497 8.14665 14.4828 8.14665 11.9982C8.14665 9.51359 9.51359 8.14665 11.9982 8.14665C14.4828 8.14665 15.8497 9.51359 15.8497 11.9982C15.8497 14.4828 14.48 15.8497 11.9982 15.8497ZM11.9982 9.26709C10.1354 9.26709 9.26709 10.1354 9.26709 11.9982C9.26709 13.8609 10.1354 14.7293 11.9982 14.7293C13.8609 14.7293 14.7293 13.8609 14.7293 11.9982C14.7293 10.1354 13.8609 9.26709 11.9982 9.26709Z" fill="black"/>
<path d="M12.7489 21.8301H11.2447C10.7041 21.8301 10.2643 21.3903 10.2643 20.8497V18.9954C9.48278 18.8693 8.7741 18.6508 8.15505 18.3427L6.7853 19.7125C6.39595 20.099 5.76849 20.099 5.37914 19.7125L4.2811 18.6116C3.89454 18.2223 3.89454 17.5948 4.2811 17.2055L5.64805 15.8385C5.33152 15.2783 5.10463 14.3735 4.99819 13.7265H3.14384C2.60323 13.7265 2.16345 13.2867 2.16345 12.7461V11.2419C2.16345 10.7013 2.60323 10.2615 3.14384 10.2615H4.99819C5.10463 9.61163 5.33152 8.70967 5.64805 8.14945L4.2811 6.7825C3.89454 6.39314 3.89454 5.76569 4.2811 5.37634L5.37914 4.2783C5.76849 3.89174 6.39595 3.89174 6.7853 4.2783L8.15505 5.64805C8.7741 5.33992 9.48278 5.12144 10.2643 4.99538V3.14384C10.2643 2.60323 10.7041 2.16345 11.2447 2.16345H12.7489C13.2895 2.16345 13.7293 2.60323 13.7293 3.14384V4.99819C14.5136 5.12424 15.1859 5.33152 15.8385 5.65085L17.2083 4.2811C17.5976 3.89454 18.2251 3.89454 18.6144 4.2811L19.7125 5.37914C20.099 5.76849 20.099 6.39595 19.7125 6.7853L18.3455 8.15505C18.6536 8.7741 18.8721 9.48278 18.9982 10.2643H20.8525C21.3931 10.2643 21.8329 10.7041 21.8329 11.2447V12.7489C21.8329 13.2895 21.3931 13.7293 20.8525 13.7293H18.9982C18.8721 14.5108 18.6536 15.2195 18.3455 15.8385L19.7153 17.2083C20.1018 17.5976 20.1018 18.2251 19.7153 18.6144L18.6172 19.7125C18.2279 20.099 17.6004 20.099 17.2111 19.7125L15.8385 18.3427C15.1859 18.6621 14.5136 18.8693 13.7293 18.9954V20.8497C13.7293 21.3931 13.2923 21.8301 12.7489 21.8301ZM11.3847 20.7097H12.6088V18.8861C12.6088 18.3931 12.9842 17.9758 13.5024 17.8973H13.5052C14.2111 17.7881 14.8049 17.606 15.3763 17.3231C15.7937 17.1158 16.2615 17.1803 16.5696 17.4884L17.9142 18.8329L18.8357 17.9114L17.4912 16.5668C17.1831 16.2587 17.1186 15.7769 17.3287 15.3679C17.6004 14.8301 17.7909 14.2027 17.9001 13.4996C17.9786 12.9814 18.3959 12.606 18.8889 12.606H20.7125V11.3819H18.8889C18.3959 11.3819 17.9786 11.0066 17.9001 10.4884C17.7909 9.7853 17.6004 9.15785 17.3287 8.62284C17.1186 8.21387 17.1831 7.73208 17.4912 7.42396L18.8357 6.07942L17.9142 5.15785L16.578 6.49679L16.5696 6.50519C16.2615 6.81331 15.7937 6.87774 15.3763 6.67045C14.8049 6.38754 14.2111 6.20547 13.5052 6.09623H13.5024C12.9842 6.01779 12.6088 5.60043 12.6088 5.10743V3.2839H11.3847V5.10743C11.3847 5.60043 11.0094 6.01779 10.4912 6.09623C9.7881 6.20547 9.16065 6.39595 8.62564 6.66765C8.21667 6.88054 7.73488 6.81331 7.42676 6.50519L6.08222 5.16065L5.16065 6.08222L6.50519 7.42676C6.87214 7.7937 6.85253 8.32872 6.64525 8.66485C6.44076 8.99819 6.20827 9.76849 6.09623 10.494C6.01779 11.001 5.59202 11.3847 5.10743 11.3847H3.2839V12.6088H5.10743C5.59202 12.6088 6.01779 12.9926 6.09623 13.4996C6.20827 14.2251 6.44076 14.9954 6.64525 15.3287C6.85253 15.6677 6.87214 16.1999 6.50519 16.5668L5.16065 17.9114L6.08222 18.8329L7.42676 17.4884C7.73488 17.1803 8.21667 17.1158 8.62564 17.3259C9.16345 17.5976 9.7909 17.7881 10.494 17.8973C11.0122 17.9758 11.3875 18.3931 11.3875 18.8861L11.3847 20.7097Z" fill="black"/>
</svg>
