<svg width="14" height="14" viewBox="0 0 14 14" fill="none" xmlns="http://www.w3.org/2000/svg">
<path d="M5.83333 5.97917C6.05482 5.97917 6.23787 6.14376 6.26684 6.3573L6.27083 6.41667V9.91667C6.27083 10.1583 6.07496 10.3542 5.83333 10.3542C5.61184 10.3542 5.4288 10.1896 5.39983 9.97603L5.39583 9.91667V6.41667C5.39583 6.17504 5.59171 5.97917 5.83333 5.97917Z" fill="white"/>
<path d="M8.60017 6.3573C8.5712 6.14376 8.38816 5.97917 8.16667 5.97917C7.92504 5.97917 7.72917 6.17504 7.72917 6.41667V9.91667L7.73316 9.97603C7.76213 10.1896 7.94518 10.3542 8.16667 10.3542C8.40829 10.3542 8.60417 10.1583 8.60417 9.91667V6.41667L8.60017 6.3573Z" fill="white"/>
<path d="M9.76784 2.59406C9.72216 1.88406 9.15946 1.3125 8.45833 1.3125H5.54167L5.45103 1.31571C4.76266 1.36459 4.22917 1.9662 4.22917 2.68742V3.64583H1.75L1.69063 3.64983C1.47709 3.6788 1.3125 3.86184 1.3125 4.08333C1.3125 4.32496 1.50838 4.52083 1.75 4.52083H2.47917V10.7917C2.47917 11.8389 3.32779 12.6875 4.375 12.6875H9.625C10.6722 12.6875 11.5208 11.8389 11.5208 10.7917V4.52083H12.25L12.3094 4.51684C12.5229 4.48787 12.6875 4.30482 12.6875 4.08333C12.6875 3.84171 12.4916 3.64583 12.25 3.64583H9.77083V2.68742L9.76784 2.59406ZM8.89583 3.64583H5.10417V2.68742L5.10769 2.62349C5.1356 2.37294 5.32533 2.1875 5.54167 2.1875H8.45833L8.51179 2.19129C8.72275 2.22136 8.89583 2.42684 8.89583 2.68742V3.64583ZM3.35417 4.52083H10.6458V10.7917C10.6458 11.3556 10.189 11.8125 9.625 11.8125H4.375L4.29125 11.8091C3.7665 11.7665 3.35417 11.3274 3.35417 10.7917V4.52083Z" fill="white"/>
</svg>
